{"title":"Casablanca(1942)MP-4[DaScubaDude]","uid":12514430,"size":1256800387,"categoryP":"video","categoryS":"movies","magnet":"?xt=urn:btih:40cc2427369339b330ea7ebccd0981451ffb00e1&amp;dn=Casablanca%281942%29MP-4%5BDaScubaDude%5D&amp;tr=udp%3A%2F%2Ftracker.leechers-paradise.org%3A6969&amp;tr=udp%3A%2F%2Fzer0day.ch%3A1337&amp;tr=udp%3A%2F%2Fopen.demonii.com%3A1337&amp;tr=udp%3A%2F%2Ftracker.coppersurfer.tk%3A6969&amp;tr=udp%3A%2F%2Fexodus.desync.com%3A6969","seeders":0,"leechers":0,"uploader":"dascuba","files":1,"time":1443646508,"description":"Casablanca (1942)\r\nPG  |  102 min  |  Drama, Film-Noir, Romance  |  23 January 1943 (USA)\r\n8.6 Your rating:   -/10   Ratings: 8.6/10 from 356,726 users   \r\nReviews: 1,067 user | 233 critic\r\nSet in Casablanca, Morocco during the early days of World War II: An American expatriate meets a former lover, with unforeseen complications.\r\n\r\nDirector: Michael Curtiz\r\nWriters: Julius J. Epstein (screenplay), Philip G. Epstein (screenplay), 4 more credits »\r\nStars: Humphrey Bogart, Ingrid Bergman, Paul Henreid\r\n\r\nGeneral\r\nComplete name                            : C:CasablancaCASABLANCA_Title1.mp4\r\nFormat                                   : MPEG-4\r\nFormat profile                           : Base Media\r\nCodec ID                                 : isom\r\nFile size                                : 1.17 GiB\r\nDuration                                 : 1h 42mn\r\nOverall bit rate mode                    : Constant\r\nOverall bit rate                         : 1 634 Kbps\r\nMovie name                               : CASABLANCA\r\nGenre                                    : Drama\r\nWriting application                      : Lavf54.6.100\r\n\r\nVideo\r\nID                                       : 1\r\nFormat                                   : MPEG-4 Visual\r\nFormat settings, BVOP                    : No\r\nFormat settings, QPel                    : No\r\nFormat settings, GMC                     : No warppoints\r\nFormat settings, Matrix                  : Default (H.263)\r\nCodec ID                                 : 20\r\nDuration                                 : 1h 42mn\r\nBit rate mode                            : Constant\r\nBit rate                                 : 1 500 Kbps\r\nWidth                                    : 720 pixels\r\nHeight                                   : 540 pixels\r\nDisplay aspect ratio                     : 4:3\r\nFrame rate mode                          : Constant\r\nFrame rate                               : 29.970 fps\r\nColor space                              : YUV\r\nChroma subsampling                       : 4:2:0\r\nBit depth                                : 8 bits\r\nScan type                                : Progressive\r\nCompression mode                         : Lossy\r\nBits/(Pixel*Frame)                       : 0.129\r\nStream size                              : 1.07 GiB (92%)\r\nWriting library                          : Lavc54.23.100\r\n\r\nAudio\r\nID                                       : 2\r\nFormat                                   : MPEG Audio\r\nFormat version                           : Version 1\r\nFormat profile                           : Layer 3\r\nCodec ID                                 : 6B\r\nDuration                                 : 1h 42mn\r\nBit rate mode                            : Constant\r\nBit rate                                 : 128 Kbps\r\nChannel(s)                               : 2 channels\r\nSampling rate                            : 44.1 KHz\r\nCompression mode                         : Lossy\r\nStream size                              : 93.9 MiB (8%)","torrent":{"xt":"urn:btih:40cc2427369339b330ea7ebccd0981451ffb00e1","amp;dn":"Casablanca%281942%29MP-4%5BDaScubaDude%5D","amp;tr":["udp%3A%2F%2Ftracker.leechers-paradise.org%3A6969","udp%3A%2F%2Fzer0day.ch%3A1337","udp%3A%2F%2Fopen.demonii.com%3A1337","udp%3A%2F%2Ftracker.coppersurfer.tk%3A6969","udp%3A%2F%2Fexodus.desync.com%3A6969"],"infoHash":"40cc2427369339b330ea7ebccd0981451ffb00e1","infoHashBuffer":{"type":"Buffer","data":[64,204,36,39,54,147,57,179,48,234,126,188,205,9,129,69,31,251,0,225]},"announce":[],"urlList":[]}}